{
    "asset" : {
        "generator" : "Khronos glTF Blender I/O v1.6.16",
        "version" : "2.0"
    },
    "scene" : 0,
    "scenes" : [
        {
            "name" : "Scene",
            "nodes" : [
                0,
                1,
                2,
                3,
                4
            ]
        }
    ],
    "nodes" : [
        {
            "mesh" : 0,
            "name" : "Sphere",
            "rotation" : [
                -4.879009793512523e-05,
                0.9062755107879639,
                0.0011466997675597668,
                0.4226858615875244
            ]
        },
        {
            "name" : "Camera",
            "rotation" : [
                0.2131280153989792,
                -0.7664642930030823,
                0.5257568359375,
                0.3011459708213806
            ],
            "translation" : [
                -3.764115571975708,
                2.126060724258423,
                -3.931056499481201
            ]
        },
        {
            "name" : "Sun",
            "rotation" : [
                -0.2662771940231323,
                0.528094470500946,
                0.3969491422176361,
                0.7018861174583435
            ],
            "translation" : [
                -3.9288549423217773,
                0.526311993598938,
                2.1215131282806396
            ]
        },
        {
            "mesh" : 1,
            "name" : "Cylindre",
            "rotation" : [
                -0.3334168493747711,
                0.8426876664161682,
                -0.1648664027452469,
                0.38926830887794495
            ],
            "scale" : [
                0.2486475259065628,
                0.4384845197200775,
                0.28729870915412903
            ],
            "translation" : [
                -0.4825289249420166,
                0.7929196953773499,
                -0.6137295365333557
            ]
        },
        {
            "mesh" : 2,
            "name" : "Icosph\u00e8re",
            "rotation" : [
                -0.3334168493747711,
                0.8426876664161682,
                -0.1648664027452469,
                0.38926830887794495
            ],
            "scale" : [
                1.9598866701126099,
                1.3017096519470215,
                1.6434870958328247
            ],
            "translation" : [
                -0.5110070109367371,
                0.8388466238975525,
                -0.6474886536598206
            ]
        }
    ],
    "materials" : [
        {
            "doubleSided" : true,
            "name" : "Material.009",
            "pbrMetallicRoughness" : {
                "baseColorFactor" : [
                    0.006216820329427719,
                    0.37804681062698364,
                    0.6827744245529175,
                    1
                ],
                "metallicFactor" : 0,
                "roughnessFactor" : 0.5
            }
        },
        {
            "doubleSided" : true,
            "name" : "Material.008",
            "pbrMetallicRoughness" : {
                "baseColorFactor" : [
                    0.04057749733328819,
                    0.8162760734558105,
                    0.11648337543010712,
                    1
                ],
                "metallicFactor" : 0,
                "roughnessFactor" : 0.5
            }
        },
        {
            "doubleSided" : true,
            "name" : "Material.010",
            "pbrMetallicRoughness" : {
                "baseColorFactor" : [
                    0.05683440342545509,
                    0.24227656424045563,
                    0.10035599768161774,
                    1
                ],
                "metallicFactor" : 0,
                "roughnessFactor" : 0.5
            }
        },
        {
            "doubleSided" : true,
            "name" : "Material.005",
            "pbrMetallicRoughness" : {
                "baseColorFactor" : [
                    0.6434436440467834,
                    0.759128212928772,
                    0.805510401725769,
                    1
                ],
                "metallicFactor" : 0,
                "roughnessFactor" : 0.5
            }
        },
        {
            "doubleSided" : true,
            "name" : "Mat\u00e9riau.001",
            "pbrMetallicRoughness" : {
                "baseColorFactor" : [
                    0.4143044948577881,
                    0.2774903476238251,
                    0.5520114898681641,
                    1
                ],
                "metallicFactor" : 0,
                "roughnessFactor" : 0.5
            }
        },
        {
            "doubleSided" : true,
            "name" : "Mat\u00e9riau",
            "pbrMetallicRoughness" : {
                "baseColorFactor" : [
                    0.5440803170204163,
                    0,
                    0.8000000715255737,
                    1
                ],
                "metallicFactor" : 0,
                "roughnessFactor" : 0.5
            }
        }
    ],
    "meshes" : [
        {
            "name" : "Sphere.002",
            "primitives" : [
                {
                    "attributes" : {
                        "POSITION" : 0,
                        "NORMAL" : 1,
                        "TEXCOORD_0" : 2
                    },
                    "indices" : 3,
                    "material" : 0
                },
                {
                    "attributes" : {
                        "POSITION" : 4,
                        "NORMAL" : 5,
                        "TEXCOORD_0" : 6
                    },
                    "indices" : 7,
                    "material" : 1
                },
                {
                    "attributes" : {
                        "POSITION" : 8,
                        "NORMAL" : 9,
                        "TEXCOORD_0" : 10
                    },
                    "indices" : 11,
                    "material" : 2
                },
                {
                    "attributes" : {
                        "POSITION" : 12,
                        "NORMAL" : 13,
                        "TEXCOORD_0" : 14
                    },
                    "indices" : 15,
                    "material" : 3
                }
            ]
        },
        {
            "name" : "Cylindre",
            "primitives" : [
                {
                    "attributes" : {
                        "POSITION" : 16,
                        "NORMAL" : 17,
                        "TEXCOORD_0" : 18
                    },
                    "indices" : 19,
                    "material" : 4
                }
            ]
        },
        {
            "name" : "Icosph\u00e8re",
            "primitives" : [
                {
                    "attributes" : {
                        "POSITION" : 20,
                        "NORMAL" : 21,
                        "TEXCOORD_0" : 22
                    },
                    "indices" : 23,
                    "material" : 5
                }
            ]
        }
    ],
    "accessors" : [
        {
            "bufferView" : 0,
            "componentType" : 5126,
            "count" : 3642,
            "max" : [
                0.999829113483429,
                1.0009301900863647,
                1.0017833709716797
            ],
            "min" : [
                -1.0001885890960693,
                -0.9818867444992065,
                -0.9991334080696106
            ],
            "type" : "VEC3"
        },
        {
            "bufferView" : 1,
            "componentType" : 5126,
            "count" : 3642,
            "type" : "VEC3"
        },
        {
            "bufferView" : 2,
            "componentType" : 5126,
            "count" : 3642,
            "type" : "VEC2"
        },
        {
            "bufferView" : 3,
            "componentType" : 5123,
            "count" : 3684,
            "type" : "SCALAR"
        },
        {
            "bufferView" : 4,
            "componentType" : 5126,
            "count" : 2565,
            "max" : [
                1.0460973978042603,
                1.0391769409179688,
                1.0562149286270142
            ],
            "min" : [
                -1.0424513816833496,
                -0.916206955909729,
                -1.0396809577941895
            ],
            "type" : "VEC3"
        },
        {
            "bufferView" : 5,
            "componentType" : 5126,
            "count" : 2565,
            "type" : "VEC3"
        },
        {
            "bufferView" : 6,
            "componentType" : 5126,
            "count" : 2565,
            "type" : "VEC2"
        },
        {
            "bufferView" : 7,
            "componentType" : 5123,
            "count" : 2565,
            "type" : "SCALAR"
        },
        {
            "bufferView" : 8,
            "componentType" : 5126,
            "count" : 2605,
            "max" : [
                1.0460973978042603,
                1.0391769409179688,
                1.0562149286270142
            ],
            "min" : [
                -1.0424513816833496,
                -0.9818867444992065,
                -1.0396809577941895
            ],
            "type" : "VEC3"
        },
        {
            "bufferView" : 9,
            "componentType" : 5126,
            "count" : 2605,
            "type" : "VEC3"
        },
        {
            "bufferView" : 10,
            "componentType" : 5126,
            "count" : 2605,
            "type" : "VEC2"
        },
        {
            "bufferView" : 11,
            "componentType" : 5123,
            "count" : 5421,
            "type" : "SCALAR"
        },
        {
            "bufferView" : 12,
            "componentType" : 5126,
            "count" : 428,
            "max" : [
                0.36853307485580444,
                -0.8757662773132324,
                0.4481832981109619
            ],
            "min" : [
                -0.39067327976226807,
                -1.0673469305038452,
                -0.4113941490650177
            ],
            "type" : "VEC3"
        },
        {
            "bufferView" : 13,
            "componentType" : 5126,
            "count" : 428,
            "type" : "VEC3"
        },
        {
            "bufferView" : 14,
            "componentType" : 5126,
            "count" : 428,
            "type" : "VEC2"
        },
        {
            "bufferView" : 15,
            "componentType" : 5123,
            "count" : 498,
            "type" : "SCALAR"
        },
        {
            "bufferView" : 16,
            "componentType" : 5126,
            "count" : 192,
            "max" : [
                0.02010878548026085,
                0.1780894696712494,
                0.017403490841388702
            ],
            "min" : [
                -0.02010878548026085,
                -0.1780894696712494,
                -0.017403490841388702
            ],
            "type" : "VEC3"
        },
        {
            "bufferView" : 17,
            "componentType" : 5126,
            "count" : 192,
            "type" : "VEC3"
        },
        {
            "bufferView" : 18,
            "componentType" : 5126,
            "count" : 192,
            "type" : "VEC2"
        },
        {
            "bufferView" : 19,
            "componentType" : 5123,
            "count" : 372,
            "type" : "SCALAR"
        },
        {
            "bufferView" : 20,
            "componentType" : 5126,
            "count" : 240,
            "max" : [
                0.015307008288800716,
                0.023046614602208138,
                0.0182538703083992
            ],
            "min" : [
                -0.015307008288800716,
                -0.023046614602208138,
                -0.0182538703083992
            ],
            "type" : "VEC3"
        },
        {
            "bufferView" : 21,
            "componentType" : 5126,
            "count" : 240,
            "type" : "VEC3"
        },
        {
            "bufferView" : 22,
            "componentType" : 5126,
            "count" : 240,
            "type" : "VEC2"
        },
        {
            "bufferView" : 23,
            "componentType" : 5123,
            "count" : 240,
            "type" : "SCALAR"
        }
    ],
    "bufferViews" : [
        {
            "buffer" : 0,
            "byteLength" : 43704,
            "byteOffset" : 0
        },
        {
            "buffer" : 0,
            "byteLength" : 43704,
            "byteOffset" : 43704
        },
        {
            "buffer" : 0,
            "byteLength" : 29136,
            "byteOffset" : 87408
        },
        {
            "buffer" : 0,
            "byteLength" : 7368,
            "byteOffset" : 116544
        },
        {
            "buffer" : 0,
            "byteLength" : 30780,
            "byteOffset" : 123912
        },
        {
            "buffer" : 0,
            "byteLength" : 30780,
            "byteOffset" : 154692
        },
        {
            "buffer" : 0,
            "byteLength" : 20520,
            "byteOffset" : 185472
        },
        {
            "buffer" : 0,
            "byteLength" : 5130,
            "byteOffset" : 205992
        },
        {
            "buffer" : 0,
            "byteLength" : 31260,
            "byteOffset" : 211124
        },
        {
            "buffer" : 0,
            "byteLength" : 31260,
            "byteOffset" : 242384
        },
        {
            "buffer" : 0,
            "byteLength" : 20840,
            "byteOffset" : 273644
        },
        {
            "buffer" : 0,
            "byteLength" : 10842,
            "byteOffset" : 294484
        },
        {
            "buffer" : 0,
            "byteLength" : 5136,
            "byteOffset" : 305328
        },
        {
            "buffer" : 0,
            "byteLength" : 5136,
            "byteOffset" : 310464
        },
        {
            "buffer" : 0,
            "byteLength" : 3424,
            "byteOffset" : 315600
        },
        {
            "buffer" : 0,
            "byteLength" : 996,
            "byteOffset" : 319024
        },
        {
            "buffer" : 0,
            "byteLength" : 2304,
            "byteOffset" : 320020
        },
        {
            "buffer" : 0,
            "byteLength" : 2304,
            "byteOffset" : 322324
        },
        {
            "buffer" : 0,
            "byteLength" : 1536,
            "byteOffset" : 324628
        },
        {
            "buffer" : 0,
            "byteLength" : 744,
            "byteOffset" : 326164
        },
        {
            "buffer" : 0,
            "byteLength" : 2880,
            "byteOffset" : 326908
        },
        {
            "buffer" : 0,
            "byteLength" : 2880,
            "byteOffset" : 329788
        },
        {
            "buffer" : 0,
            "byteLength" : 1920,
            "byteOffset" : 332668
        },
        {
            "buffer" : 0,
            "byteLength" : 480,
            "byteOffset" : 334588
        }
    ],
    "buffers" : [
        {
            "byteLength" : 335068,
            "uri" : "data:application/octet-stream;base64,"
        }
    ]
}
